<svg xmlns="http://www.w3.org/2000/svg" xmlns:xlink="http://www.w3.org/1999/xlink" width="118" zoomAndPan="magnify" viewBox="0 0 88.5 110.999996" height="148" preserveAspectRatio="xMidYMid meet" version="1.0"><defs><g/><clipPath id="9767133c42"><path d="M 1.582031 0.3125 L 86 0.3125 L 86 83.777344 L 1.582031 83.777344 Z M 1.582031 0.3125 " clip-rule="nonzero"/></clipPath><clipPath id="e79bd8a4bf"><path d="M 12.769531 0.3125 L 74.589844 0.3125 C 80.765625 0.3125 85.773438 5.320312 85.773438 11.5 L 85.773438 72.589844 C 85.773438 78.765625 80.765625 83.777344 74.589844 83.777344 L 12.769531 83.777344 C 6.589844 83.777344 1.582031 78.765625 1.582031 72.589844 L 1.582031 11.5 C 1.582031 5.320312 6.589844 0.3125 12.769531 0.3125 Z M 12.769531 0.3125 " clip-rule="nonzero"/></clipPath><clipPath id="bebc0c1bc4"><path d="M 0.582031 0.3125 L 84.914062 0.3125 L 84.914062 83.777344 L 0.582031 83.777344 Z M 0.582031 0.3125 " clip-rule="nonzero"/></clipPath><clipPath id="c63e87f2eb"><path d="M 11.769531 0.3125 L 73.589844 0.3125 C 79.765625 0.3125 84.773438 5.320312 84.773438 11.5 L 84.773438 72.589844 C 84.773438 78.765625 79.765625 83.777344 73.589844 83.777344 L 11.769531 83.777344 C 5.589844 83.777344 0.582031 78.765625 0.582031 72.589844 L 0.582031 11.5 C 0.582031 5.320312 5.589844 0.3125 11.769531 0.3125 Z M 11.769531 0.3125 " clip-rule="nonzero"/></clipPath><clipPath id="4423997fa8"><rect x="0" width="85" y="0" height="84"/></clipPath><clipPath id="5c2e34596b"><rect x="0" width="75" y="0" height="19"/></clipPath></defs><g clip-path="url(#9767133c42)"><g clip-path="url(#e79bd8a4bf)"><g transform="matrix(1, 0, 0, 1, 1, -0.000000000000006994)"><g clip-path="url(#4423997fa8)"><g clip-path="url(#bebc0c1bc4)"><g clip-path="url(#c63e87f2eb)"><path fill="#ff751f" d="M 0.582031 0.3125 L 84.699219 0.3125 L 84.699219 83.777344 L 0.582031 83.777344 Z M 0.582031 0.3125 " fill-opacity="1" fill-rule="nonzero"/></g></g></g></g></g></g><g transform="matrix(1, 0, 0, 1, 6, 86)"><g clip-path="url(#5c2e34596b)"><g fill="#b4b4b4" fill-opacity="1"><g transform="translate(1.240415, 14.809585)"><g><path d="M 10.421875 -3.015625 C 10.421875 -2.484375 10.3125 -2.023438 10.09375 -1.640625 C 9.875 -1.253906 9.578125 -0.941406 9.203125 -0.703125 C 8.835938 -0.460938 8.40625 -0.285156 7.90625 -0.171875 C 7.40625 -0.0546875 6.878906 0 6.328125 0 L 1.03125 0 L 1.03125 -10.59375 L 5.875 -10.59375 C 6.5 -10.59375 7.054688 -10.535156 7.546875 -10.421875 C 8.035156 -10.316406 8.445312 -10.15625 8.78125 -9.9375 C 9.113281 -9.71875 9.367188 -9.441406 9.546875 -9.109375 C 9.722656 -8.773438 9.8125 -8.378906 9.8125 -7.921875 C 9.8125 -7.328125 9.644531 -6.820312 9.3125 -6.40625 C 8.976562 -5.988281 8.46875 -5.707031 7.78125 -5.5625 C 8.644531 -5.46875 9.300781 -5.203125 9.75 -4.765625 C 10.195312 -4.328125 10.421875 -3.742188 10.421875 -3.015625 Z M 7.578125 -7.625 C 7.578125 -8.101562 7.425781 -8.441406 7.125 -8.640625 C 6.820312 -8.835938 6.367188 -8.9375 5.765625 -8.9375 L 3.25 -8.9375 L 3.25 -6.3125 L 5.78125 -6.3125 C 6.40625 -6.3125 6.859375 -6.421875 7.140625 -6.640625 C 7.429688 -6.859375 7.578125 -7.1875 7.578125 -7.625 Z M 8.1875 -3.1875 C 8.1875 -3.46875 8.128906 -3.703125 8.015625 -3.890625 C 7.910156 -4.085938 7.757812 -4.242188 7.5625 -4.359375 C 7.375 -4.472656 7.148438 -4.554688 6.890625 -4.609375 C 6.640625 -4.660156 6.363281 -4.6875 6.0625 -4.6875 L 3.25 -4.6875 L 3.25 -1.640625 L 6.140625 -1.640625 C 6.429688 -1.640625 6.703125 -1.660156 6.953125 -1.703125 C 7.203125 -1.753906 7.414062 -1.835938 7.59375 -1.953125 C 7.78125 -2.078125 7.925781 -2.238281 8.03125 -2.4375 C 8.132812 -2.644531 8.1875 -2.894531 8.1875 -3.1875 Z M 8.1875 -3.1875 "/></g></g></g><g fill="#b4b4b4" fill-opacity="1"><g transform="translate(11.626814, 14.809585)"><g><path d="M 8.796875 -4.078125 C 8.796875 -3.453125 8.707031 -2.878906 8.53125 -2.359375 C 8.363281 -1.847656 8.109375 -1.40625 7.765625 -1.03125 C 7.421875 -0.65625 6.988281 -0.363281 6.46875 -0.15625 C 5.957031 0.0507812 5.359375 0.15625 4.671875 0.15625 C 4.003906 0.15625 3.414062 0.0507812 2.90625 -0.15625 C 2.40625 -0.363281 1.984375 -0.648438 1.640625 -1.015625 C 1.296875 -1.390625 1.035156 -1.835938 0.859375 -2.359375 C 0.679688 -2.878906 0.59375 -3.453125 0.59375 -4.078125 C 0.59375 -4.679688 0.675781 -5.238281 0.84375 -5.75 C 1.019531 -6.257812 1.273438 -6.703125 1.609375 -7.078125 C 1.953125 -7.460938 2.378906 -7.757812 2.890625 -7.96875 C 3.410156 -8.175781 4.019531 -8.28125 4.71875 -8.28125 C 5.445312 -8.28125 6.066406 -8.175781 6.578125 -7.96875 C 7.097656 -7.757812 7.519531 -7.46875 7.84375 -7.09375 C 8.175781 -6.71875 8.414062 -6.269531 8.5625 -5.75 C 8.71875 -5.238281 8.796875 -4.679688 8.796875 -4.078125 Z M 6.59375 -4.078125 C 6.59375 -5.046875 6.429688 -5.742188 6.109375 -6.171875 C 5.796875 -6.609375 5.335938 -6.828125 4.734375 -6.828125 C 4.117188 -6.828125 3.644531 -6.609375 3.3125 -6.171875 C 2.976562 -5.734375 2.8125 -5.035156 2.8125 -4.078125 C 2.8125 -3.585938 2.851562 -3.164062 2.9375 -2.8125 C 3.03125 -2.46875 3.15625 -2.179688 3.3125 -1.953125 C 3.476562 -1.722656 3.671875 -1.554688 3.890625 -1.453125 C 4.117188 -1.347656 4.367188 -1.296875 4.640625 -1.296875 C 4.953125 -1.296875 5.226562 -1.347656 5.46875 -1.453125 C 5.71875 -1.554688 5.921875 -1.722656 6.078125 -1.953125 C 6.242188 -2.179688 6.367188 -2.46875 6.453125 -2.8125 C 6.546875 -3.164062 6.59375 -3.585938 6.59375 -4.078125 Z M 6.59375 -4.078125 "/></g></g></g><g fill="#b4b4b4" fill-opacity="1"><g transform="translate(20.300578, 14.809585)"><g><path d="M 3.0625 -8.125 L 3.0625 -3.5625 C 3.0625 -3.25 3.085938 -2.960938 3.140625 -2.703125 C 3.191406 -2.441406 3.273438 -2.21875 3.390625 -2.03125 C 3.503906 -1.84375 3.648438 -1.691406 3.828125 -1.578125 C 4.015625 -1.472656 4.242188 -1.421875 4.515625 -1.421875 C 4.765625 -1.421875 4.992188 -1.476562 5.203125 -1.59375 C 5.410156 -1.707031 5.585938 -1.867188 5.734375 -2.078125 C 5.890625 -2.285156 6.007812 -2.53125 6.09375 -2.8125 C 6.175781 -3.101562 6.21875 -3.421875 6.21875 -3.765625 L 6.21875 -8.125 L 8.328125 -8.125 L 8.328125 -1.8125 C 8.328125 -1.644531 8.328125 -1.46875 8.328125 -1.28125 C 8.328125 -1.09375 8.332031 -0.914062 8.34375 -0.75 C 8.351562 -0.582031 8.359375 -0.429688 8.359375 -0.296875 C 8.367188 -0.160156 8.378906 -0.0625 8.390625 0 L 6.375 0 C 6.363281 -0.0625 6.351562 -0.15625 6.34375 -0.28125 C 6.332031 -0.414062 6.320312 -0.566406 6.3125 -0.734375 L 6.296875 -1.203125 C 6.285156 -1.367188 6.28125 -1.503906 6.28125 -1.609375 L 6.25 -1.609375 C 5.96875 -0.992188 5.609375 -0.546875 5.171875 -0.265625 C 4.742188 0.015625 4.226562 0.15625 3.625 0.15625 C 3.144531 0.15625 2.734375 0.078125 2.390625 -0.078125 C 2.046875 -0.242188 1.765625 -0.46875 1.546875 -0.75 C 1.335938 -1.03125 1.1875 -1.359375 1.09375 -1.734375 C 1 -2.117188 0.953125 -2.53125 0.953125 -2.96875 L 0.953125 -8.125 Z M 3.0625 -8.125 "/></g></g></g><g fill="#b4b4b4" fill-opacity="1"><g transform="translate(28.974342, 14.809585)"><g><path d="M 6.34375 0 L 6.34375 -4.5625 C 6.34375 -4.875 6.316406 -5.160156 6.265625 -5.421875 C 6.210938 -5.691406 6.128906 -5.921875 6.015625 -6.109375 C 5.898438 -6.296875 5.75 -6.441406 5.5625 -6.546875 C 5.382812 -6.648438 5.160156 -6.703125 4.890625 -6.703125 C 4.640625 -6.703125 4.410156 -6.644531 4.203125 -6.53125 C 3.992188 -6.414062 3.8125 -6.253906 3.65625 -6.046875 C 3.507812 -5.835938 3.394531 -5.585938 3.3125 -5.296875 C 3.226562 -5.015625 3.1875 -4.703125 3.1875 -4.359375 L 3.1875 0 L 1.078125 0 L 1.078125 -6.3125 C 1.078125 -6.488281 1.070312 -6.664062 1.0625 -6.84375 C 1.0625 -7.03125 1.054688 -7.207031 1.046875 -7.375 C 1.046875 -7.550781 1.039062 -7.703125 1.03125 -7.828125 C 1.03125 -7.960938 1.023438 -8.0625 1.015625 -8.125 L 3.03125 -8.125 C 3.039062 -8.070312 3.050781 -7.976562 3.0625 -7.84375 C 3.070312 -7.707031 3.082031 -7.554688 3.09375 -7.390625 C 3.101562 -7.234375 3.109375 -7.078125 3.109375 -6.921875 C 3.117188 -6.765625 3.125 -6.628906 3.125 -6.515625 L 3.15625 -6.515625 C 3.4375 -7.140625 3.789062 -7.585938 4.21875 -7.859375 C 4.65625 -8.140625 5.171875 -8.28125 5.765625 -8.28125 C 6.265625 -8.28125 6.679688 -8.203125 7.015625 -8.046875 C 7.347656 -7.890625 7.617188 -7.671875 7.828125 -7.390625 C 8.046875 -7.109375 8.203125 -6.773438 8.296875 -6.390625 C 8.398438 -6.015625 8.453125 -5.601562 8.453125 -5.15625 L 8.453125 0 Z M 6.34375 0 "/></g></g></g><g fill="#b4b4b4" fill-opacity="1"><g transform="translate(37.648106, 14.809585)"><g><path d="M 6.34375 0 C 6.332031 -0.0390625 6.320312 -0.113281 6.3125 -0.21875 C 6.300781 -0.320312 6.285156 -0.4375 6.265625 -0.5625 C 6.253906 -0.695312 6.242188 -0.832031 6.234375 -0.96875 C 6.234375 -1.101562 6.234375 -1.222656 6.234375 -1.328125 L 6.203125 -1.328125 C 5.953125 -0.796875 5.609375 -0.414062 5.171875 -0.1875 C 4.734375 0.0390625 4.207031 0.15625 3.59375 0.15625 C 3.082031 0.15625 2.640625 0.0507812 2.265625 -0.15625 C 1.898438 -0.375 1.59375 -0.671875 1.34375 -1.046875 C 1.101562 -1.421875 0.921875 -1.863281 0.796875 -2.375 C 0.679688 -2.894531 0.625 -3.457031 0.625 -4.0625 C 0.625 -4.675781 0.6875 -5.238281 0.8125 -5.75 C 0.9375 -6.269531 1.125 -6.71875 1.375 -7.09375 C 1.632812 -7.46875 1.960938 -7.757812 2.359375 -7.96875 C 2.753906 -8.175781 3.21875 -8.28125 3.75 -8.28125 C 4.019531 -8.28125 4.273438 -8.25 4.515625 -8.1875 C 4.765625 -8.132812 4.992188 -8.050781 5.203125 -7.9375 C 5.421875 -7.820312 5.613281 -7.675781 5.78125 -7.5 C 5.945312 -7.320312 6.09375 -7.101562 6.21875 -6.84375 L 6.234375 -6.84375 C 6.234375 -6.894531 6.226562 -6.96875 6.21875 -7.0625 C 6.21875 -7.164062 6.21875 -7.28125 6.21875 -7.40625 C 6.21875 -7.53125 6.21875 -7.660156 6.21875 -7.796875 C 6.21875 -7.929688 6.21875 -8.0625 6.21875 -8.1875 L 6.21875 -11.15625 L 8.328125 -11.15625 L 8.328125 -1.78125 C 8.328125 -1.382812 8.332031 -1.03125 8.34375 -0.71875 C 8.363281 -0.40625 8.378906 -0.164062 8.390625 0 Z M 6.25 -4.109375 C 6.25 -4.648438 6.195312 -5.09375 6.09375 -5.4375 C 5.988281 -5.789062 5.851562 -6.070312 5.6875 -6.28125 C 5.53125 -6.488281 5.347656 -6.632812 5.140625 -6.71875 C 4.929688 -6.800781 4.722656 -6.84375 4.515625 -6.84375 C 4.242188 -6.84375 4.003906 -6.789062 3.796875 -6.6875 C 3.585938 -6.582031 3.410156 -6.414062 3.265625 -6.1875 C 3.117188 -5.96875 3.007812 -5.679688 2.9375 -5.328125 C 2.863281 -4.972656 2.828125 -4.550781 2.828125 -4.0625 C 2.828125 -2.21875 3.382812 -1.296875 4.5 -1.296875 C 4.707031 -1.296875 4.914062 -1.335938 5.125 -1.421875 C 5.332031 -1.515625 5.519531 -1.664062 5.6875 -1.875 C 5.851562 -2.09375 5.988281 -2.382812 6.09375 -2.75 C 6.195312 -3.113281 6.25 -3.566406 6.25 -4.109375 Z M 6.25 -4.109375 "/></g></g></g><g fill="#b4b4b4" fill-opacity="1"><g transform="translate(46.32187, 14.809585)"><g><path d="M 1.078125 0 L 1.078125 -11.15625 L 3.1875 -11.15625 L 3.1875 0 Z M 1.078125 0 "/></g></g></g><g fill="#b4b4b4" fill-opacity="1"><g transform="translate(49.872751, 14.809585)"><g><path d="M 4.40625 0.15625 C 3.820312 0.15625 3.296875 0.0664062 2.828125 -0.109375 C 2.359375 -0.285156 1.957031 -0.546875 1.625 -0.890625 C 1.289062 -1.242188 1.035156 -1.6875 0.859375 -2.21875 C 0.679688 -2.757812 0.59375 -3.390625 0.59375 -4.109375 C 0.59375 -4.878906 0.695312 -5.53125 0.90625 -6.0625 C 1.113281 -6.59375 1.394531 -7.019531 1.75 -7.34375 C 2.101562 -7.675781 2.507812 -7.914062 2.96875 -8.0625 C 3.4375 -8.207031 3.925781 -8.28125 4.4375 -8.28125 C 5.070312 -8.28125 5.613281 -8.164062 6.0625 -7.9375 C 6.519531 -7.71875 6.894531 -7.40625 7.1875 -7 C 7.476562 -6.601562 7.691406 -6.125 7.828125 -5.5625 C 7.960938 -5.007812 8.03125 -4.394531 8.03125 -3.71875 L 8.03125 -3.65625 L 2.8125 -3.65625 C 2.8125 -3.320312 2.84375 -3.003906 2.90625 -2.703125 C 2.96875 -2.410156 3.066406 -2.15625 3.203125 -1.9375 C 3.335938 -1.726562 3.507812 -1.5625 3.71875 -1.4375 C 3.9375 -1.320312 4.203125 -1.265625 4.515625 -1.265625 C 4.878906 -1.265625 5.175781 -1.34375 5.40625 -1.5 C 5.644531 -1.65625 5.816406 -1.898438 5.921875 -2.234375 L 7.90625 -2.0625 C 7.820312 -1.832031 7.695312 -1.585938 7.53125 -1.328125 C 7.375 -1.066406 7.160156 -0.828125 6.890625 -0.609375 C 6.617188 -0.390625 6.28125 -0.207031 5.875 -0.0625 C 5.46875 0.0820312 4.976562 0.15625 4.40625 0.15625 Z M 4.40625 -6.953125 C 4.1875 -6.953125 3.984375 -6.914062 3.796875 -6.84375 C 3.609375 -6.769531 3.445312 -6.65625 3.3125 -6.5 C 3.175781 -6.34375 3.0625 -6.140625 2.96875 -5.890625 C 2.882812 -5.640625 2.835938 -5.335938 2.828125 -4.984375 L 5.984375 -4.984375 C 5.941406 -5.640625 5.785156 -6.128906 5.515625 -6.453125 C 5.242188 -6.785156 4.875 -6.953125 4.40625 -6.953125 Z M 4.40625 -6.953125 "/></g></g></g><g fill="#b4b4b4" fill-opacity="1"><g transform="translate(57.705221, 14.809585)"><g><path d="M 7.921875 -2.375 C 7.921875 -1.976562 7.835938 -1.625 7.671875 -1.3125 C 7.515625 -1.007812 7.28125 -0.75 6.96875 -0.53125 C 6.664062 -0.3125 6.285156 -0.140625 5.828125 -0.015625 C 5.378906 0.0976562 4.867188 0.15625 4.296875 0.15625 C 3.773438 0.15625 3.304688 0.113281 2.890625 0.03125 C 2.472656 -0.0390625 2.109375 -0.160156 1.796875 -0.328125 C 1.484375 -0.503906 1.222656 -0.726562 1.015625 -1 C 0.804688 -1.28125 0.648438 -1.625 0.546875 -2.03125 L 2.390625 -2.3125 C 2.453125 -2.082031 2.535156 -1.894531 2.640625 -1.75 C 2.742188 -1.613281 2.875 -1.507812 3.03125 -1.4375 C 3.1875 -1.363281 3.367188 -1.3125 3.578125 -1.28125 C 3.785156 -1.257812 4.023438 -1.25 4.296875 -1.25 C 4.535156 -1.25 4.757812 -1.257812 4.96875 -1.28125 C 5.175781 -1.3125 5.351562 -1.359375 5.5 -1.421875 C 5.65625 -1.492188 5.773438 -1.59375 5.859375 -1.71875 C 5.941406 -1.84375 5.984375 -1.992188 5.984375 -2.171875 C 5.984375 -2.390625 5.921875 -2.554688 5.796875 -2.671875 C 5.679688 -2.796875 5.515625 -2.894531 5.296875 -2.96875 C 5.085938 -3.050781 4.835938 -3.117188 4.546875 -3.171875 C 4.265625 -3.234375 3.957031 -3.300781 3.625 -3.375 C 3.289062 -3.457031 2.957031 -3.550781 2.625 -3.65625 C 2.289062 -3.757812 1.992188 -3.898438 1.734375 -4.078125 C 1.472656 -4.253906 1.257812 -4.484375 1.09375 -4.765625 C 0.9375 -5.046875 0.859375 -5.398438 0.859375 -5.828125 C 0.859375 -6.210938 0.929688 -6.554688 1.078125 -6.859375 C 1.234375 -7.160156 1.457031 -7.414062 1.75 -7.625 C 2.039062 -7.84375 2.398438 -8.003906 2.828125 -8.109375 C 3.253906 -8.222656 3.75 -8.28125 4.3125 -8.28125 C 4.75 -8.28125 5.15625 -8.238281 5.53125 -8.15625 C 5.914062 -8.082031 6.257812 -7.953125 6.5625 -7.765625 C 6.863281 -7.585938 7.113281 -7.363281 7.3125 -7.09375 C 7.519531 -6.820312 7.660156 -6.488281 7.734375 -6.09375 L 5.875 -5.90625 C 5.832031 -6.09375 5.765625 -6.25 5.671875 -6.375 C 5.585938 -6.507812 5.476562 -6.613281 5.34375 -6.6875 C 5.207031 -6.757812 5.050781 -6.8125 4.875 -6.84375 C 4.707031 -6.875 4.519531 -6.890625 4.3125 -6.890625 C 3.800781 -6.890625 3.421875 -6.820312 3.171875 -6.6875 C 2.921875 -6.5625 2.796875 -6.347656 2.796875 -6.046875 C 2.796875 -5.859375 2.847656 -5.707031 2.953125 -5.59375 C 3.054688 -5.488281 3.203125 -5.398438 3.390625 -5.328125 C 3.578125 -5.253906 3.800781 -5.191406 4.0625 -5.140625 C 4.320312 -5.085938 4.601562 -5.023438 4.90625 -4.953125 C 5.28125 -4.867188 5.648438 -4.773438 6.015625 -4.671875 C 6.378906 -4.566406 6.703125 -4.421875 6.984375 -4.234375 C 7.265625 -4.046875 7.488281 -3.800781 7.65625 -3.5 C 7.832031 -3.207031 7.921875 -2.832031 7.921875 -2.375 Z M 7.921875 -2.375 "/></g></g></g><g fill="#b4b4b4" fill-opacity="1"><g transform="translate(65.53769, 14.809585)"><g><path d="M 7.921875 -2.375 C 7.921875 -1.976562 7.835938 -1.625 7.671875 -1.3125 C 7.515625 -1.007812 7.28125 -0.75 6.96875 -0.53125 C 6.664062 -0.3125 6.285156 -0.140625 5.828125 -0.015625 C 5.378906 0.0976562 4.867188 0.15625 4.296875 0.15625 C 3.773438 0.15625 3.304688 0.113281 2.890625 0.03125 C 2.472656 -0.0390625 2.109375 -0.160156 1.796875 -0.328125 C 1.484375 -0.503906 1.222656 -0.726562 1.015625 -1 C 0.804688 -1.28125 0.648438 -1.625 0.546875 -2.03125 L 2.390625 -2.3125 C 2.453125 -2.082031 2.535156 -1.894531 2.640625 -1.75 C 2.742188 -1.613281 2.875 -1.507812 3.03125 -1.4375 C 3.1875 -1.363281 3.367188 -1.3125 3.578125 -1.28125 C 3.785156 -1.257812 4.023438 -1.25 4.296875 -1.25 C 4.535156 -1.25 4.757812 -1.257812 4.96875 -1.28125 C 5.175781 -1.3125 5.351562 -1.359375 5.5 -1.421875 C 5.65625 -1.492188 5.773438 -1.59375 5.859375 -1.71875 C 5.941406 -1.84375 5.984375 -1.992188 5.984375 -2.171875 C 5.984375 -2.390625 5.921875 -2.554688 5.796875 -2.671875 C 5.679688 -2.796875 5.515625 -2.894531 5.296875 -2.96875 C 5.085938 -3.050781 4.835938 -3.117188 4.546875 -3.171875 C 4.265625 -3.234375 3.957031 -3.300781 3.625 -3.375 C 3.289062 -3.457031 2.957031 -3.550781 2.625 -3.65625 C 2.289062 -3.757812 1.992188 -3.898438 1.734375 -4.078125 C 1.472656 -4.253906 1.257812 -4.484375 1.09375 -4.765625 C 0.9375 -5.046875 0.859375 -5.398438 0.859375 -5.828125 C 0.859375 -6.210938 0.929688 -6.554688 1.078125 -6.859375 C 1.234375 -7.160156 1.457031 -7.414062 1.75 -7.625 C 2.039062 -7.84375 2.398438 -8.003906 2.828125 -8.109375 C 3.253906 -8.222656 3.75 -8.28125 4.3125 -8.28125 C 4.75 -8.28125 5.15625 -8.238281 5.53125 -8.15625 C 5.914062 -8.082031 6.257812 -7.953125 6.5625 -7.765625 C 6.863281 -7.585938 7.113281 -7.363281 7.3125 -7.09375 C 7.519531 -6.820312 7.660156 -6.488281 7.734375 -6.09375 L 5.875 -5.90625 C 5.832031 -6.09375 5.765625 -6.25 5.671875 -6.375 C 5.585938 -6.507812 5.476562 -6.613281 5.34375 -6.6875 C 5.207031 -6.757812 5.050781 -6.8125 4.875 -6.84375 C 4.707031 -6.875 4.519531 -6.890625 4.3125 -6.890625 C 3.800781 -6.890625 3.421875 -6.820312 3.171875 -6.6875 C 2.921875 -6.5625 2.796875 -6.347656 2.796875 -6.046875 C 2.796875 -5.859375 2.847656 -5.707031 2.953125 -5.59375 C 3.054688 -5.488281 3.203125 -5.398438 3.390625 -5.328125 C 3.578125 -5.253906 3.800781 -5.191406 4.0625 -5.140625 C 4.320312 -5.085938 4.601562 -5.023438 4.90625 -4.953125 C 5.28125 -4.867188 5.648438 -4.773438 6.015625 -4.671875 C 6.378906 -4.566406 6.703125 -4.421875 6.984375 -4.234375 C 7.265625 -4.046875 7.488281 -3.800781 7.65625 -3.5 C 7.832031 -3.207031 7.921875 -2.832031 7.921875 -2.375 Z M 7.921875 -2.375 "/></g></g></g></g></g></svg>